<?xml version="1.0" encoding="UTF-8" standalone="no"?>
<!-- Generator: Adobe Illustrator 16.0.0, SVG Export Plug-In . SVG Version: 6.00 Build 0)  -->

<svg
		xmlns:dc="http://purl.org/dc/elements/1.1/"
		xmlns:cc="http://creativecommons.org/ns#"
		xmlns:rdf="http://www.w3.org/1999/02/22-rdf-syntax-ns#"
		xmlns="http://www.w3.org/2000/svg"
		xmlns:sodipodi="http://sodipodi.sourceforge.net/DTD/sodipodi-0.dtd"
		xmlns:inkscape="http://www.inkscape.org/namespaces/inkscape"
		version="1.1"
		id="Capa_1"
		x="0px"
		y="0px"
		width="16"
		height="16"
		viewBox="0 0 16.000001 16"
		xml:space="preserve"
		inkscape:version="0.48.2 r9819"
		sodipodi:docname="answer.svg"><metadata
   id="metadata66"><rdf:RDF><cc:Work
       rdf:about=""><dc:format>image/svg+xml</dc:format><dc:type
         rdf:resource="http://purl.org/dc/dcmitype/StillImage" /></cc:Work></rdf:RDF></metadata><defs
   id="defs64" /><sodipodi:namedview
   pagecolor="#ffffff"
   bordercolor="#666666"
   borderopacity="1"
   objecttolerance="10"
   gridtolerance="10"
   guidetolerance="10"
   inkscape:pageopacity="0"
   inkscape:pageshadow="2"
   inkscape:window-width="1680"
   inkscape:window-height="998"
   id="namedview62"
   showgrid="false"
   fit-margin-top="0"
   fit-margin-left="0"
   fit-margin-right="0"
   fit-margin-bottom="0"
   inkscape:zoom="5.0211698"
   inkscape:cx="0.44261654"
   inkscape:cy="23.5005"
   inkscape:window-x="-8"
   inkscape:window-y="-8"
   inkscape:window-maximized="1"
   inkscape:current-layer="Capa_1" />
<g
   id="g3"
   transform="matrix(0.34041829,0,0,0.34041829,-0.76457925,0)">
	<g
   id="Layer_1_31_">
		<g
   id="g6">
			<path
   d="M 23.501,7.231 C 15.618,7.233 9.205,13.435 9.205,21.055 c 0,4.946 2.007,7.888 3.485,10.056 0.909,1.334 1.424,2.128 1.424,2.927 0,1.793 0.961,3.483 2.669,4.75 0.043,1.063 0.2,3.659 0.2,3.659 0,10e-4 0,0.002 0,0.003 0.028,0.737 0.416,2.248 2.956,3.092 0.299,0.44 0.692,0.831 1.168,1.149 0.298,0.201 0.65,0.31 1.01,0.31 h 2.768 c 0.36,0 0.711,-0.106 1.01,-0.31 0.477,-0.319 0.871,-0.709 1.168,-1.149 2.563,-0.853 2.936,-2.381 2.957,-3.097 0,0 0.156,-2.592 0.199,-3.656 1.708,-1.268 2.67,-2.957 2.67,-4.75 0,-0.799 0.514,-1.594 1.432,-2.938 1.467,-2.15 3.478,-5.095 3.478,-10.047 C 37.798,13.432 31.384,7.231 23.501,7.231 z m 7.824,21.844 c -1.056,1.548 -2.052,3.01 -2.052,4.963 0,0.858 -0.776,1.549 -1.354,1.948 h -8.835 c -0.578,-0.398 -1.354,-1.09 -1.354,-1.948 0,-1.953 -0.997,-3.415 -2.065,-4.981 -1.333,-1.955 -2.845,-4.172 -2.845,-8.001 0,-5.627 4.792,-10.207 10.682,-10.209 5.891,0 10.682,4.579 10.682,10.207 0,3.837 -1.515,6.051 -2.859,8.021 z"
   id="path8"
   inkscape:connector-curvature="0" />
			<path
   d="m 23.501,4.519 c 0.499,0 0.903,-0.404 0.903,-0.904 V 0.904 C 24.404,0.405 24,0 23.501,0 23.002,0 22.597,0.405 22.597,0.904 v 2.711 c 0,0.5 0.405,0.904 0.904,0.904 z"
   id="path10"
   inkscape:connector-curvature="0" />
			<path
   d="m 13.898,6.431 c 0.168,0.29 0.471,0.452 0.784,0.452 0.153,0 0.309,-0.039 0.451,-0.121 0.433,-0.25 0.581,-0.802 0.331,-1.235 L 14.108,3.179 C 13.858,2.746 13.306,2.598 12.873,2.848 12.441,3.098 12.293,3.65 12.542,4.083 l 1.356,2.348 z"
   id="path12"
   inkscape:connector-curvature="0" />
			<path
   d="M 8.677,11.652 6.329,10.297 C 5.896,10.047 5.344,10.196 5.094,10.628 4.845,11.06 4.993,11.613 5.425,11.863 l 2.348,1.355 c 0.142,0.082 0.298,0.121 0.451,0.121 0.313,0 0.616,-0.162 0.784,-0.452 0.249,-0.432 0.101,-0.985 -0.331,-1.235 z"
   id="path14"
   inkscape:connector-curvature="0" />
			<path
   d="m 6.765,21.255 c 0,-0.499 -0.405,-0.904 -0.904,-0.904 H 3.15 c -0.499,0 -0.904,0.405 -0.904,0.904 0,0.499 0.405,0.904 0.904,0.904 h 2.711 c 0.499,0 0.904,-0.405 0.904,-0.904 z"
   id="path16"
   inkscape:connector-curvature="0" />
			<path
   d="m 7.773,29.292 -2.349,1.354 c -0.432,0.25 -0.581,0.803 -0.332,1.234 0.167,0.291 0.472,0.452 0.784,0.452 0.153,0 0.309,-0.039 0.451,-0.121 L 8.675,30.857 C 9.108,30.607 9.256,30.054 9.007,29.623 8.758,29.189 8.206,29.042 7.773,29.292 z"
   id="path18"
   inkscape:connector-curvature="0" />
			<path
   d="M 41.578,30.648 39.23,29.292 c -0.434,-0.25 -0.985,-0.103 -1.235,0.33 -0.25,0.433 -0.103,0.985 0.33,1.235 l 2.348,1.355 c 0.144,0.083 0.298,0.121 0.451,0.121 0.313,0 0.616,-0.162 0.784,-0.451 0.248,-0.431 0.102,-0.986 -0.33,-1.234 z"
   id="path20"
   inkscape:connector-curvature="0" />
			<path
   d="m 43.852,20.352 -2.709,-0.001 0,0 c -0.5,0 -0.904,0.405 -0.904,0.903 0,0.5 0.404,0.904 0.902,0.904 l 2.711,10e-4 0,0 c 0.498,0 0.903,-0.405 0.903,-0.903 0,-0.499 -0.403,-0.904 -0.903,-0.904 z"
   id="path22"
   inkscape:connector-curvature="0" />
			<path
   d="m 38.777,13.338 c 0.154,0 0.31,-0.039 0.451,-0.121 l 2.349,-1.354 c 0.433,-0.249 0.581,-0.802 0.332,-1.234 -0.25,-0.433 -0.804,-0.581 -1.235,-0.331 l -2.348,1.354 c -0.434,0.25 -0.581,0.803 -0.332,1.234 0.168,0.29 0.472,0.452 0.783,0.452 z"
   id="path24"
   inkscape:connector-curvature="0" />
			<path
   d="m 31.869,6.76 c 0.142,0.083 0.297,0.122 0.451,0.122 0.312,0 0.615,-0.162 0.783,-0.452 L 34.457,4.083 C 34.707,3.651 34.56,3.098 34.127,2.849 33.694,2.598 33.142,2.746 32.892,3.18 l -1.354,2.347 c -0.249,0.431 -0.1,0.984 0.331,1.233 z"
   id="path26"
   inkscape:connector-curvature="0" />
			<path
   d="m 22.289,26.714 c 0.109,0.8 0.496,1.021 1.212,1.021 0.715,0 1.103,-0.221 1.213,-1.021 l 0.854,-6.447 c 0.054,-0.44 0.108,-0.881 0.108,-1.294 v -3.196 c 0,-1.405 -0.799,-2.122 -2.176,-2.122 -1.378,0 -2.177,0.716 -2.177,2.122 v 3.196 c 0,0.413 0.055,0.854 0.11,1.294 l 0.856,6.447 z"
   id="path28"
   inkscape:connector-curvature="0" />
			<path
   d="m 23.501,29.523 c -1.241,0 -2.26,1.02 -2.26,2.26 0,1.24 1.02,2.259 2.26,2.259 1.24,0 2.259,-1.019 2.259,-2.259 10e-4,-1.24 -1.019,-2.26 -2.259,-2.26 z"
   id="path30"
   inkscape:connector-curvature="0" />
		</g>
	</g>
</g>
<g
   id="g32"
   transform="translate(-2.246,-31.001)">
</g>
<g
   id="g34"
   transform="translate(-2.246,-31.001)">
</g>
<g
   id="g36"
   transform="translate(-2.246,-31.001)">
</g>
<g
   id="g38"
   transform="translate(-2.246,-31.001)">
</g>
<g
   id="g40"
   transform="translate(-2.246,-31.001)">
</g>
<g
   id="g42"
   transform="translate(-2.246,-31.001)">
</g>
<g
   id="g44"
   transform="translate(-2.246,-31.001)">
</g>
<g
   id="g46"
   transform="translate(-2.246,-31.001)">
</g>
<g
   id="g48"
   transform="translate(-2.246,-31.001)">
</g>
<g
   id="g50"
   transform="translate(-2.246,-31.001)">
</g>
<g
   id="g52"
   transform="translate(-2.246,-31.001)">
</g>
<g
   id="g54"
   transform="translate(-2.246,-31.001)">
</g>
<g
   id="g56"
   transform="translate(-2.246,-31.001)">
</g>
<g
   id="g58"
   transform="translate(-2.246,-31.001)">
</g>
<g
   id="g60"
   transform="translate(-2.246,-31.001)">
</g>
</svg>