<?xml version="1.0" encoding="UTF-8" standalone="no"?>
<!-- Generator: Adobe Illustrator 16.0.0, SVG Export Plug-In . SVG Version: 6.00 Build 0)  -->

<svg
		xmlns:dc="http://purl.org/dc/elements/1.1/"
		xmlns:cc="http://creativecommons.org/ns#"
		xmlns:rdf="http://www.w3.org/1999/02/22-rdf-syntax-ns#"
		xmlns="http://www.w3.org/2000/svg"
		xmlns:sodipodi="http://sodipodi.sourceforge.net/DTD/sodipodi-0.dtd"
		xmlns:inkscape="http://www.inkscape.org/namespaces/inkscape"
		version="1.1"
		id="Capa_1"
		x="0px"
		y="0px"
		width="16"
		height="16"
		viewBox="0 0 16.000001 16"
		xml:space="preserve"
		inkscape:version="0.48.2 r9819"
		sodipodi:docname="dependancy.svg"><metadata
   id="metadata50"><rdf:RDF><cc:Work
       rdf:about=""><dc:format>image/svg+xml</dc:format><dc:type
         rdf:resource="http://purl.org/dc/dcmitype/StillImage" /></cc:Work></rdf:RDF></metadata><defs
   id="defs48" /><sodipodi:namedview
   pagecolor="#ffffff"
   bordercolor="#666666"
   borderopacity="1"
   objecttolerance="10"
   gridtolerance="10"
   guidetolerance="10"
   inkscape:pageopacity="0"
   inkscape:pageshadow="2"
   inkscape:window-width="1680"
   inkscape:window-height="998"
   id="namedview46"
   showgrid="false"
   fit-margin-top="0"
   fit-margin-left="0"
   fit-margin-right="0"
   fit-margin-bottom="0"
   inkscape:zoom="5.0209563"
   inkscape:cx="23.501499"
   inkscape:cy="21.7365"
   inkscape:window-x="-8"
   inkscape:window-y="-8"
   inkscape:window-maximized="1"
   inkscape:current-layer="Capa_1" />
<g
   id="g3"
   transform="matrix(0.34037485,0,0,0.34037485,0,0.60212322)">
	<g
   id="Layer_1_142_">
		<g
   id="g6">
			<path
   d="m 22.267,19.763 0.598,-3.85 -0.301,-0.485 c -0.043,-0.067 -0.035,-0.155 0.019,-0.214 l 0.785,-0.848 c 0.068,-0.072 0.192,-0.072 0.26,0 l 0.785,0.848 c 0.054,0.059 0.062,0.146 0.019,0.214 l -0.301,0.485 0.598,3.849 c 4.723,-0.079 7.583,-0.618 7.583,-1.18 0,-2.745 -1.866,-2.866 -3.94,-3.544 -1.278,-0.415 -2.862,-0.649 -2.522,-2.851 0.842,-0.77 1.135,-2.355 1.135,-2.355 0,0 1.121,-0.565 1.25,-1.647 0.095,-0.825 -0.336,-1.208 -0.336,-1.208 0,0 0,-0.059 0,-1.046 0,-2.33 -1.996,-4.165 -4.397,-4.165 -2.402,0 -4.398,1.835 -4.398,4.165 0,0.987 0,1.046 0,1.046 0,0 -0.43,0.383 -0.335,1.208 0.128,1.082 1.249,1.647 1.249,1.647 0,0 0.294,1.586 1.136,2.355 0.338,2.201 -1.245,2.436 -2.523,2.851 -2.075,0.678 -3.94,0.799 -3.94,3.544 -0.006,0.561 2.853,1.101 7.576,1.181 z"
   id="path8"
   inkscape:connector-curvature="0" />
			<path
   d="m 13.682,40.513 c -1.278,-0.416 -2.862,-0.649 -2.523,-2.853 0.842,-0.77 1.136,-2.354 1.136,-2.354 0,0 1.12,-0.563 1.249,-1.646 0.095,-0.826 -0.335,-1.209 -0.335,-1.209 0,0 0,-0.06 0,-1.045 0,-2.33 -1.996,-4.166 -4.398,-4.166 -2.402,0 -4.398,1.836 -4.398,4.166 0,0.986 0,1.045 0,1.045 0,0 -0.43,0.383 -0.335,1.209 0.128,1.082 1.249,1.646 1.249,1.646 0,0 0.294,1.585 1.136,2.354 C 6.801,39.862 5.218,40.097 3.94,40.513 1.865,41.189 0,41.312 0,44.056 c 0,0.562 2.859,1.103 7.583,1.182 L 8.181,41.388 7.88,40.902 C 7.837,40.834 7.845,40.748 7.899,40.689 l 0.785,-0.85 c 0.068,-0.07 0.192,-0.07 0.26,0 l 0.785,0.85 c 0.054,0.059 0.062,0.146 0.019,0.213 l -0.301,0.485 0.598,3.849 c 4.723,-0.078 7.583,-0.619 7.583,-1.181 -0.006,-2.743 -1.872,-2.866 -3.946,-3.542 z"
   id="path10"
   inkscape:connector-curvature="0" />
			<path
   d="m 43.057,40.513 c -1.277,-0.416 -2.861,-0.649 -2.522,-2.853 0.842,-0.77 1.136,-2.354 1.136,-2.354 0,0 1.12,-0.563 1.249,-1.646 0.095,-0.826 -0.335,-1.209 -0.335,-1.209 0,0 0,-0.06 0,-1.045 0,-2.33 -1.996,-4.166 -4.398,-4.166 -2.401,0 -4.397,1.836 -4.397,4.166 0,0.986 0,1.045 0,1.045 0,0 -0.431,0.383 -0.335,1.209 0.128,1.082 1.249,1.646 1.249,1.646 0,0 0.294,1.585 1.136,2.354 0.338,2.202 -1.244,2.437 -2.523,2.853 -2.074,0.677 -3.939,0.799 -3.939,3.543 0,0.562 2.859,1.103 7.583,1.182 l 0.599,-3.85 -0.302,-0.485 c -0.043,-0.068 -0.034,-0.154 0.019,-0.213 l 0.785,-0.85 c 0.068,-0.07 0.192,-0.07 0.26,0 l 0.785,0.85 c 0.055,0.059 0.062,0.146 0.02,0.213 l -0.301,0.485 0.598,3.849 c 4.723,-0.078 7.583,-0.619 7.583,-1.181 -0.01,-2.744 -1.876,-2.867 -3.95,-3.543 z"
   id="path12"
   inkscape:connector-curvature="0" />
			<path
   d="m 30.497,36.326 c 0.337,0 0.671,-0.145 0.903,-0.424 0.416,-0.499 0.348,-1.24 -0.151,-1.654 l -6.577,-5.474 v -6.449 c 0,-0.649 -0.526,-1.175 -1.175,-1.175 -0.649,0 -1.175,0.526 -1.175,1.175 v 6.449 l -6.577,5.474 c -0.499,0.414 -0.567,1.155 -0.152,1.654 0.415,0.499 1.156,0.566 1.655,0.15 l 6.249,-5.199 6.249,5.199 c 0.219,0.184 0.484,0.274 0.751,0.274 z"
   id="path14"
   inkscape:connector-curvature="0" />
		</g>
	</g>
</g>
<g
   id="g16"
   transform="translate(0,-29.238)">
</g>
<g
   id="g18"
   transform="translate(0,-29.238)">
</g>
<g
   id="g20"
   transform="translate(0,-29.238)">
</g>
<g
   id="g22"
   transform="translate(0,-29.238)">
</g>
<g
   id="g24"
   transform="translate(0,-29.238)">
</g>
<g
   id="g26"
   transform="translate(0,-29.238)">
</g>
<g
   id="g28"
   transform="translate(0,-29.238)">
</g>
<g
   id="g30"
   transform="translate(0,-29.238)">
</g>
<g
   id="g32"
   transform="translate(0,-29.238)">
</g>
<g
   id="g34"
   transform="translate(0,-29.238)">
</g>
<g
   id="g36"
   transform="translate(0,-29.238)">
</g>
<g
   id="g38"
   transform="translate(0,-29.238)">
</g>
<g
   id="g40"
   transform="translate(0,-29.238)">
</g>
<g
   id="g42"
   transform="translate(0,-29.238)">
</g>
<g
   id="g44"
   transform="translate(0,-29.238)">
</g>
</svg>