<?xml version="1.0" encoding="UTF-8" standalone="no"?>
<!-- Generator: Adobe Illustrator 16.0.0, SVG Export Plug-In . SVG Version: 6.00 Build 0)  -->

<svg
		xmlns:dc="http://purl.org/dc/elements/1.1/"
		xmlns:cc="http://creativecommons.org/ns#"
		xmlns:rdf="http://www.w3.org/1999/02/22-rdf-syntax-ns#"
		xmlns="http://www.w3.org/2000/svg"
		xmlns:sodipodi="http://sodipodi.sourceforge.net/DTD/sodipodi-0.dtd"
		xmlns:inkscape="http://www.inkscape.org/namespaces/inkscape"
		version="1.1"
		id="Capa_1"
		x="0px"
		y="0px"
		width="16"
		height="16"
		viewBox="0 0 16 16"
		xml:space="preserve"
		inkscape:version="0.48.2 r9819"
		sodipodi:docname="range.svg"><metadata
   id="metadata42"><rdf:RDF><cc:Work
       rdf:about=""><dc:format>image/svg+xml</dc:format><dc:type
         rdf:resource="http://purl.org/dc/dcmitype/StillImage" /><dc:title></dc:title></cc:Work></rdf:RDF></metadata><defs
   id="defs40" /><sodipodi:namedview
   pagecolor="#ffffff"
   bordercolor="#666666"
   borderopacity="1"
   objecttolerance="10"
   gridtolerance="10"
   guidetolerance="10"
   inkscape:pageopacity="0"
   inkscape:pageshadow="2"
   inkscape:window-width="1680"
   inkscape:window-height="998"
   id="namedview38"
   showgrid="false"
   fit-margin-top="0"
   fit-margin-left="0"
   fit-margin-right="0"
   fit-margin-bottom="0"
   inkscape:zoom="5.0212766"
   inkscape:cx="-28.430898"
   inkscape:cy="23.5"
   inkscape:window-x="-8"
   inkscape:window-y="-8"
   inkscape:window-maximized="1"
   inkscape:current-layer="Capa_1" />
<g
   id="g3"
   transform="matrix(0.34042734,0,0,0.34042734,-0.39047016,-8.5106835e-5)">
	<g
   id="Layer_1_166_">
		<path
   d="M 44.463,8.783 24.402,0.187 c -0.577,-0.249 -1.229,-0.249 -1.806,0 L 2.537,8.783 c -0.844,0.361 -1.39,1.19 -1.39,2.107 v 25.219 c 0,0.917 0.546,1.747 1.39,2.107 l 20.061,8.597 C 22.887,46.938 23.193,47 23.5,47 c 0.307,0 0.613,-0.062 0.903,-0.188 l 20.061,-8.597 c 0.845,-0.36 1.391,-1.19 1.391,-2.107 V 10.891 C 45.854,9.974 45.307,9.145 44.463,8.783 z M 27.852,20.117 41.268,14.367 V 31.233 L 27.852,20.117 z M 5.731,14.367 19.147,20.117 5.731,31.232 V 14.367 z m 15.477,9.998 V 41.229 L 7.791,35.479 21.208,24.365 z M 23.5,4.787 37.741,10.891 23.5,16.994 9.258,10.89 23.5,4.787 z m 2.291,19.578 13.418,11.114 -13.418,5.75 V 24.365 z"
   id="path6"
   inkscape:connector-curvature="0" />
	</g>
</g>
<g
   id="g8"
   transform="translate(-1.147,-31)">
</g>
<g
   id="g10"
   transform="translate(-1.147,-31)">
</g>
<g
   id="g12"
   transform="translate(-1.147,-31)">
</g>
<g
   id="g14"
   transform="translate(-1.147,-31)">
</g>
<g
   id="g16"
   transform="translate(-1.147,-31)">
</g>
<g
   id="g18"
   transform="translate(-1.147,-31)">
</g>
<g
   id="g20"
   transform="translate(-1.147,-31)">
</g>
<g
   id="g22"
   transform="translate(-1.147,-31)">
</g>
<g
   id="g24"
   transform="translate(-1.147,-31)">
</g>
<g
   id="g26"
   transform="translate(-1.147,-31)">
</g>
<g
   id="g28"
   transform="translate(-1.147,-31)">
</g>
<g
   id="g30"
   transform="translate(-1.147,-31)">
</g>
<g
   id="g32"
   transform="translate(-1.147,-31)">
</g>
<g
   id="g34"
   transform="translate(-1.147,-31)">
</g>
<g
   id="g36"
   transform="translate(-1.147,-31)">
</g>
</svg>