<?xml version="1.0" encoding="UTF-8" standalone="no"?>
<!-- Generator: Adobe Illustrator 16.0.0, SVG Export Plug-In . SVG Version: 6.00 Build 0)  -->

<svg
		xmlns:dc="http://purl.org/dc/elements/1.1/"
		xmlns:cc="http://creativecommons.org/ns#"
		xmlns:rdf="http://www.w3.org/1999/02/22-rdf-syntax-ns#"
		xmlns="http://www.w3.org/2000/svg"
		xmlns:sodipodi="http://sodipodi.sourceforge.net/DTD/sodipodi-0.dtd"
		xmlns:inkscape="http://www.inkscape.org/namespaces/inkscape"
		version="1.1"
		id="Capa_1"
		x="0px"
		y="0px"
		width="15.329857"
		height="16"
		viewBox="0 0 15.329857 16"
		xml:space="preserve"
		inkscape:version="0.48.2 r9819"
		sodipodi:docname="result.svg"><metadata
   id="metadata52"><rdf:RDF><cc:Work
       rdf:about=""><dc:format>image/svg+xml</dc:format><dc:type
         rdf:resource="http://purl.org/dc/dcmitype/StillImage" /></cc:Work></rdf:RDF></metadata><defs
   id="defs50" /><sodipodi:namedview
   pagecolor="#ffffff"
   bordercolor="#666666"
   borderopacity="1"
   objecttolerance="10"
   gridtolerance="10"
   guidetolerance="10"
   inkscape:pageopacity="0"
   inkscape:pageshadow="2"
   inkscape:window-width="1680"
   inkscape:window-height="998"
   id="namedview48"
   showgrid="false"
   fit-margin-top="0"
   fit-margin-left="0"
   fit-margin-right="0"
   fit-margin-bottom="0"
   inkscape:zoom="5.0212766"
   inkscape:cx="22.515"
   inkscape:cy="23.499"
   inkscape:window-x="-8"
   inkscape:window-y="-8"
   inkscape:window-maximized="1"
   inkscape:current-layer="Capa_1" />
<g
   id="g3"
   transform="matrix(0.34043278,0,0,0.34043278,-0.33532629,0)">
	<g
   id="Layer_1_22_">
		<g
   id="g6">
			<path
   d="M 6.12,38.52 V 5.136 H 33.082 V 33.173 L 38.219,28.93 V 2.568 C 38.219,1.15 37.07,0 35.652,0 H 3.552 C 2.134,0 0.985,1.15 0.985,2.568 v 38.519 c 0,1.418 1.149,2.568 2.567,2.568 H 25.96 L 22.33,38.52 H 6.12 z"
   id="path8"
   inkscape:connector-curvature="0" />
			<path
   d="m 45.613,27.609 c -0.473,-0.446 -1.2,-0.467 -1.698,-0.057 l -11.778,9.734 -7.849,-4.709 c -0.521,-0.312 -1.188,-0.219 -1.603,0.229 -0.412,0.444 -0.457,1.117 -0.106,1.613 l 8.506,12.037 c 0.238,0.337 0.625,0.539 1.037,0.543 0.004,0 0.008,0 0.012,0 0.408,0 0.793,-0.193 1.035,-0.525 l 12.6,-17.173 c 0.38,-0.521 0.315,-1.246 -0.156,-1.692 z"
   id="path10"
   inkscape:connector-curvature="0" />
			<path
   d="M 27.306,8.988 H 11.897 c -1.418,0 -2.567,1.15 -2.567,2.568 0,1.418 1.149,2.568 2.567,2.568 h 15.408 c 1.418,0 2.566,-1.15 2.566,-2.568 0,-1.418 -1.147,-2.568 -2.565,-2.568 z"
   id="path12"
   inkscape:connector-curvature="0" />
			<path
   d="M 27.306,16.691 H 11.897 c -1.418,0 -2.567,1.15 -2.567,2.568 0,1.418 1.149,2.568 2.567,2.568 h 15.408 c 1.418,0 2.566,-1.149 2.566,-2.568 0.003,-1.418 -1.147,-2.568 -2.565,-2.568 z"
   id="path14"
   inkscape:connector-curvature="0" />
			<path
   d="M 27.306,24.395 H 11.897 c -1.418,0 -2.567,1.15 -2.567,2.568 0,1.418 1.149,2.568 2.567,2.568 h 15.408 c 1.418,0 2.566,-1.15 2.566,-2.568 0.003,-1.418 -1.147,-2.568 -2.565,-2.568 z"
   id="path16"
   inkscape:connector-curvature="0" />
		</g>
	</g>
</g>
<g
   id="g18"
   transform="translate(-0.98500001,-30.999)">
</g>
<g
   id="g20"
   transform="translate(-0.98500001,-30.999)">
</g>
<g
   id="g22"
   transform="translate(-0.98500001,-30.999)">
</g>
<g
   id="g24"
   transform="translate(-0.98500001,-30.999)">
</g>
<g
   id="g26"
   transform="translate(-0.98500001,-30.999)">
</g>
<g
   id="g28"
   transform="translate(-0.98500001,-30.999)">
</g>
<g
   id="g30"
   transform="translate(-0.98500001,-30.999)">
</g>
<g
   id="g32"
   transform="translate(-0.98500001,-30.999)">
</g>
<g
   id="g34"
   transform="translate(-0.98500001,-30.999)">
</g>
<g
   id="g36"
   transform="translate(-0.98500001,-30.999)">
</g>
<g
   id="g38"
   transform="translate(-0.98500001,-30.999)">
</g>
<g
   id="g40"
   transform="translate(-0.98500001,-30.999)">
</g>
<g
   id="g42"
   transform="translate(-0.98500001,-30.999)">
</g>
<g
   id="g44"
   transform="translate(-0.98500001,-30.999)">
</g>
<g
   id="g46"
   transform="translate(-0.98500001,-30.999)">
</g>
</svg>